<mxfile host="app.diagrams.net" modified="2024-03-23T22:30:52.921Z" agent="Mozilla/5.0 (Windows NT 10.0; Win64; x64) AppleWebKit/537.36 (KHTML, like Gecko) Chrome/123.0.0.0 Safari/537.36" etag="x2JOpLU6ucKj_Egk98VN" version="24.0.8" type="device">
  <diagram name="Page-1" id="JvB5wR6W-oEkVD3rVu-g">
    <mxGraphModel dx="1050" dy="565" grid="0" gridSize="10" guides="1" tooltips="1" connect="1" arrows="1" fold="1" page="1" pageScale="1" pageWidth="850" pageHeight="1100" math="0" shadow="0">
      <root>
        <mxCell id="0" />
        <mxCell id="1" parent="0" />
        <mxCell id="LzNX2weQlZaB3PBh4Oq8-1" value="" style="rounded=0;whiteSpace=wrap;html=1;" parent="1" vertex="1">
          <mxGeometry x="300" y="70" width="260" height="410" as="geometry" />
        </mxCell>
        <mxCell id="LzNX2weQlZaB3PBh4Oq8-3" value="&lt;font style=&quot;font-size: 12px;&quot;&gt;&lt;b style=&quot;&quot;&gt;Registration &amp;amp; Authentication&amp;nbsp;&lt;/b&gt;&lt;/font&gt;&lt;div&gt;&lt;font style=&quot;font-size: 12px;&quot;&gt;&lt;b style=&quot;&quot;&gt;System&lt;/b&gt;&lt;/font&gt;&lt;/div&gt;" style="ellipse;whiteSpace=wrap;html=1;fillColor=#dae8fc;strokeColor=#6c8ebf;align=center;" parent="1" vertex="1">
          <mxGeometry x="323" y="100" width="205" height="50" as="geometry" />
        </mxCell>
        <mxCell id="LzNX2weQlZaB3PBh4Oq8-4" value="&lt;b&gt;Problem Repository&lt;/b&gt;" style="ellipse;whiteSpace=wrap;html=1;fillColor=#dae8fc;strokeColor=#6c8ebf;" parent="1" vertex="1">
          <mxGeometry x="325" y="160" width="195" height="50" as="geometry" />
        </mxCell>
        <mxCell id="LzNX2weQlZaB3PBh4Oq8-5" value="&lt;b&gt;Contest&lt;/b&gt;" style="ellipse;whiteSpace=wrap;html=1;fillColor=#dae8fc;strokeColor=#6c8ebf;" parent="1" vertex="1">
          <mxGeometry x="323" y="220" width="197" height="50" as="geometry" />
        </mxCell>
        <mxCell id="LzNX2weQlZaB3PBh4Oq8-6" value="&lt;b&gt;Knowledge Nexus&lt;/b&gt;" style="ellipse;whiteSpace=wrap;html=1;fillColor=#dae8fc;strokeColor=#6c8ebf;align=center;" parent="1" vertex="1">
          <mxGeometry x="329.25" y="280" width="192.5" height="50" as="geometry" />
        </mxCell>
        <mxCell id="LzNX2weQlZaB3PBh4Oq8-7" value="&lt;b&gt;Notification System&lt;/b&gt;" style="ellipse;whiteSpace=wrap;html=1;fillColor=#dae8fc;strokeColor=#6c8ebf;" parent="1" vertex="1">
          <mxGeometry x="320.5" y="340" width="210" height="50" as="geometry" />
        </mxCell>
        <mxCell id="LzNX2weQlZaB3PBh4Oq8-8" value="&lt;b&gt;User Profile Management&lt;/b&gt;" style="ellipse;whiteSpace=wrap;html=1;fillColor=#dae8fc;strokeColor=#6c8ebf;" parent="1" vertex="1">
          <mxGeometry x="325" y="400" width="210" height="50" as="geometry" />
        </mxCell>
        <mxCell id="LzNX2weQlZaB3PBh4Oq8-9" value="Contestant" style="shape=umlActor;verticalLabelPosition=bottom;verticalAlign=top;html=1;outlineConnect=0;fillColor=#dae8fc;strokeColor=#6c8ebf;" parent="1" vertex="1">
          <mxGeometry x="110" y="70" width="30" height="60" as="geometry" />
        </mxCell>
        <mxCell id="LzNX2weQlZaB3PBh4Oq8-10" value="Problem-Setter" style="shape=umlActor;verticalLabelPosition=bottom;verticalAlign=top;html=1;outlineConnect=0;fillColor=#dae8fc;strokeColor=#6c8ebf;" parent="1" vertex="1">
          <mxGeometry x="110" y="215" width="30" height="60" as="geometry" />
        </mxCell>
        <mxCell id="LzNX2weQlZaB3PBh4Oq8-11" value="Admin" style="shape=umlActor;verticalLabelPosition=bottom;verticalAlign=top;html=1;outlineConnect=0;fillColor=#dae8fc;strokeColor=#6c8ebf;" parent="1" vertex="1">
          <mxGeometry x="110" y="350" width="30" height="60" as="geometry" />
        </mxCell>
        <mxCell id="LzNX2weQlZaB3PBh4Oq8-12" value="Email" style="rounded=0;whiteSpace=wrap;html=1;fillColor=#dae8fc;strokeColor=#6c8ebf;" parent="1" vertex="1">
          <mxGeometry x="650" y="240" width="120" height="60" as="geometry" />
        </mxCell>
        <mxCell id="LzNX2weQlZaB3PBh4Oq8-13" value="" style="endArrow=none;html=1;rounded=0;entryX=0;entryY=0.5;entryDx=0;entryDy=0;" parent="1" target="LzNX2weQlZaB3PBh4Oq8-3" edge="1">
          <mxGeometry width="50" height="50" relative="1" as="geometry">
            <mxPoint x="140.6" y="99.99857142857144" as="sourcePoint" />
            <mxPoint x="320" y="125" as="targetPoint" />
            <Array as="points" />
          </mxGeometry>
        </mxCell>
        <mxCell id="LzNX2weQlZaB3PBh4Oq8-15" value="" style="endArrow=none;html=1;rounded=0;entryX=0;entryY=0.5;entryDx=0;entryDy=0;" parent="1" target="LzNX2weQlZaB3PBh4Oq8-4" edge="1">
          <mxGeometry width="50" height="50" relative="1" as="geometry">
            <mxPoint x="140" y="100" as="sourcePoint" />
            <mxPoint x="220" y="130" as="targetPoint" />
          </mxGeometry>
        </mxCell>
        <mxCell id="LzNX2weQlZaB3PBh4Oq8-16" value="" style="endArrow=none;html=1;rounded=0;entryX=0;entryY=0.5;entryDx=0;entryDy=0;" parent="1" target="LzNX2weQlZaB3PBh4Oq8-5" edge="1">
          <mxGeometry width="50" height="50" relative="1" as="geometry">
            <mxPoint x="140" y="100" as="sourcePoint" />
            <mxPoint x="200" y="160" as="targetPoint" />
          </mxGeometry>
        </mxCell>
        <mxCell id="LzNX2weQlZaB3PBh4Oq8-17" value="" style="endArrow=none;html=1;rounded=0;exitX=0.5;exitY=0.5;exitDx=0;exitDy=0;exitPerimeter=0;entryX=0;entryY=0.5;entryDx=0;entryDy=0;" parent="1" target="LzNX2weQlZaB3PBh4Oq8-6" edge="1">
          <mxGeometry width="50" height="50" relative="1" as="geometry">
            <mxPoint x="140" y="100" as="sourcePoint" />
            <mxPoint x="315" y="290" as="targetPoint" />
            <Array as="points">
              <mxPoint x="205" y="170" />
            </Array>
          </mxGeometry>
        </mxCell>
        <mxCell id="LzNX2weQlZaB3PBh4Oq8-18" value="" style="endArrow=none;html=1;rounded=0;exitX=0.5;exitY=0.5;exitDx=0;exitDy=0;exitPerimeter=0;entryX=0;entryY=0.5;entryDx=0;entryDy=0;" parent="1" target="LzNX2weQlZaB3PBh4Oq8-7" edge="1">
          <mxGeometry width="50" height="50" relative="1" as="geometry">
            <mxPoint x="140.5" y="100" as="sourcePoint" />
            <mxPoint x="323" y="335" as="targetPoint" />
            <Array as="points" />
          </mxGeometry>
        </mxCell>
        <mxCell id="LzNX2weQlZaB3PBh4Oq8-19" value="" style="endArrow=none;html=1;rounded=0;entryX=0;entryY=0.5;entryDx=0;entryDy=0;" parent="1" target="LzNX2weQlZaB3PBh4Oq8-8" edge="1">
          <mxGeometry width="50" height="50" relative="1" as="geometry">
            <mxPoint x="140" y="100" as="sourcePoint" />
            <mxPoint x="220" y="50" as="targetPoint" />
          </mxGeometry>
        </mxCell>
        <mxCell id="LzNX2weQlZaB3PBh4Oq8-25" value="" style="endArrow=none;html=1;rounded=0;entryX=0;entryY=0.5;entryDx=0;entryDy=0;" parent="1" target="LzNX2weQlZaB3PBh4Oq8-5" edge="1">
          <mxGeometry width="50" height="50" relative="1" as="geometry">
            <mxPoint x="140" y="380" as="sourcePoint" />
            <mxPoint x="320" y="250" as="targetPoint" />
          </mxGeometry>
        </mxCell>
        <mxCell id="LzNX2weQlZaB3PBh4Oq8-27" value="" style="endArrow=none;html=1;rounded=0;entryX=0;entryY=0.5;entryDx=0;entryDy=0;" parent="1" target="LzNX2weQlZaB3PBh4Oq8-3" edge="1">
          <mxGeometry width="50" height="50" relative="1" as="geometry">
            <mxPoint x="140" y="380" as="sourcePoint" />
            <mxPoint x="190" y="330" as="targetPoint" />
          </mxGeometry>
        </mxCell>
        <mxCell id="LzNX2weQlZaB3PBh4Oq8-28" value="" style="endArrow=none;html=1;rounded=0;" parent="1" edge="1">
          <mxGeometry width="50" height="50" relative="1" as="geometry">
            <mxPoint x="140" y="380" as="sourcePoint" />
            <mxPoint x="330" y="310" as="targetPoint" />
          </mxGeometry>
        </mxCell>
        <mxCell id="LzNX2weQlZaB3PBh4Oq8-29" value="" style="endArrow=none;html=1;rounded=0;entryX=0;entryY=0.5;entryDx=0;entryDy=0;" parent="1" target="LzNX2weQlZaB3PBh4Oq8-8" edge="1">
          <mxGeometry width="50" height="50" relative="1" as="geometry">
            <mxPoint x="140" y="380" as="sourcePoint" />
            <mxPoint x="320" y="430" as="targetPoint" />
          </mxGeometry>
        </mxCell>
        <mxCell id="LzNX2weQlZaB3PBh4Oq8-30" value="" style="endArrow=none;html=1;rounded=0;exitX=1;exitY=0.5;exitDx=0;exitDy=0;" parent="1" source="LzNX2weQlZaB3PBh4Oq8-7" edge="1">
          <mxGeometry width="50" height="50" relative="1" as="geometry">
            <mxPoint x="600" y="320" as="sourcePoint" />
            <mxPoint x="650" y="270" as="targetPoint" />
          </mxGeometry>
        </mxCell>
        <mxCell id="p_I0GFA8I5s5wghVFgDA-4" value="" style="edgeStyle=orthogonalEdgeStyle;rounded=0;orthogonalLoop=1;jettySize=auto;html=1;" edge="1" parent="1">
          <mxGeometry relative="1" as="geometry">
            <Array as="points">
              <mxPoint x="72" y="125" />
              <mxPoint x="72" y="240" />
            </Array>
            <mxPoint x="100" y="125" as="sourcePoint" />
            <mxPoint x="100" y="240" as="targetPoint" />
          </mxGeometry>
        </mxCell>
        <mxCell id="p_I0GFA8I5s5wghVFgDA-5" value="IS-A&lt;div&gt;&lt;br&gt;&lt;/div&gt;" style="text;html=1;align=center;verticalAlign=middle;whiteSpace=wrap;rounded=0;" vertex="1" parent="1">
          <mxGeometry x="18" y="174" width="60" height="30" as="geometry" />
        </mxCell>
      </root>
    </mxGraphModel>
  </diagram>
</mxfile>
